<?xml version="1.0" encoding="utf-8"?>
<!-- Generator: Adobe Illustrator 27.1.0, SVG Export Plug-In . SVG Version: 6.00 Build 0)  -->
<svg version="1.1" id="Layer_2_00000039103460006082098560000015617394718117016710_"
	 xmlns="http://www.w3.org/2000/svg" xmlns:xlink="http://www.w3.org/1999/xlink" x="0px" y="0px" viewBox="0 0 202.2 218.4"
	 style="enable-background:new 0 0 202.2 218.4;" xml:space="preserve">
<style type="text/css">
	.st0{fill:none;stroke:#8B97FB;stroke-miterlimit:10;}
</style>
<g id="Layer_1-2">
	<path class="st0" d="M201.1,106.9c-0.1-1-0.3-1.9-0.4-2.9c-0.5-2.9-1.1-5.7-1.9-8.5c-0.2-0.9-0.5-1.8-0.8-2.8
		c-2.2-7.3-5.4-14.2-9.4-20.8c-0.5-0.8-1-1.6-1.5-2.4c-1.1-1.6-2.2-3.2-3.3-4.8c-0.9-1.2-1.7-2.3-2.6-3.5
		c-3.6-4.5-7.5-8.7-11.9-12.4c-1.1-0.9-2.2-1.8-3.4-2.7c-2.3-1.7-4.7-3.3-7.2-4.8c-0.4-0.3-0.9-0.5-1.3-0.8
		c-0.9-0.6-1.7-1.2-2.6-1.7c-0.4-0.3-0.9-0.6-1.3-0.9c-0.6-0.4-1.1-0.9-1.7-1.3c-0.2-0.2-0.5-0.5-0.7-0.7c-3-3.2-3.9-7.1-3.3-11.8
		c0.4-2.8,1-5.5,1.6-8.2c0.4-1.6,0.8-3.2,1.2-4.9c0.2-1,0.5-2,0.7-3.1c0.2-1,0.3-2.1,0.3-3.1c0-1.5-0.4-2.7-1.2-3.5
		c-0.2-0.2-0.4-0.4-0.7-0.6c-0.5-0.3-1.1-0.5-1.8-0.7C147.6,0,147.3,0,146.9,0c-3.2-0.1-6,1-8.1,3.5c-2.1,2.4-4,5-6,7.5
		c-2.4,3-4.7,6-7.2,9c-0.3,0.4-0.7,0.8-1.1,1.1c-1.8,1.8-3.9,3-6.4,3.5c-1,0.2-2,0.4-3,0.4c-1.8,0-3.5,0.1-5.3,0.1
		c-0.9,0-1.8,0-2.6,0s-1.8,0-2.6,0c-0.7,0-1.3,0-2,0c-4.6,0-9.3,0.1-13.8,1c-1.7,0.3-3.3,0.6-4.9,1c-17.7,4.1-33,12.1-45.5,24.4
		c-4.5,4.4-8.7,9.4-12.5,15c-2.4,3.6-4.6,7.2-6.5,10.8c-2.7,5.1-4.9,10.4-6.5,15.8c-0.2,0.8-0.5,1.5-0.7,2.3
		c-2.2,7.7-3.3,15.6-3.5,23.7c0,2.4,0,4.9,0.1,7.3c0.2,3.3,0.5,6.6,1.1,10c0.3,1.7,0.6,3.4,0.9,5.1c2.1,10.4,5.9,20.3,11.3,29.4l0,0
		c2,3.4,3.9,6.9,6.2,10.8c-1.3,0.5-2.7,0.9-4.2,1.3c-4.2,1-8.6,1.1-12.9,1.1c-3.2,0-6.4,0-9.6,0c-0.9,0-1.5,0.5-1.6,1.4
		C0,186.4,0,187.4,0,188.3c0,8.6,0,17.3,0,25.9c0,0.8,0,1.6,0.1,2.4c0.1,1.2,0.6,1.7,1.8,1.6c4.3-0.3,8.6-0.6,12.9-1.1
		c6.2-0.6,12.4-1.2,18.5-2.8c8.4-2.2,15.7-5.4,21.9-9.8c3,1.9,5.3,3,6.5,3.7c13.3,7,27.7,9.9,42.6,9.9c2.2,0,4.4-0.1,6.6-0.2
		c6.6-0.4,13.1-1.5,19.5-3.3c14.7-4.1,28.1-10.6,39.3-20.7c1.6-1.4,3.2-2.9,4.7-4.5c2.1-2.2,4.1-4.4,5.9-6.6c3.7-4.5,6.9-9.2,9.7-14
		c0.5-0.8,0.9-1.6,1.3-2.4c2.6-4.9,4.7-9.9,6.4-15.1C202.1,137.7,203.2,122.8,201.1,106.9L201.1,106.9z M169.3,121.4
		c0,27.8-16.1,51.1-41.5,60.7c-7.6,2.9-15.5,4.6-23.7,4.7l0,0c-0.9,0-1.7,0-2.6,0c-0.7,0-1.3-0.1-1.9-0.1c-0.2,0-0.4,0-0.7-0.1
		c-0.4,0-0.8-0.1-1.3-0.1c-0.3,0-0.5-0.1-0.8-0.1c-0.5-0.1-1-0.1-1.5-0.2c-0.4-0.1-0.9-0.1-1.3-0.2c-0.2,0-0.4-0.1-0.7-0.1
		c-0.4-0.1-0.8-0.2-1.2-0.2c-0.1,0-0.2-0.1-0.4-0.1c-0.9-0.2-1.9-0.5-2.8-0.8l0,0c-1.6-0.5-3.1-1.1-4.7-1.8
		c-1.9-0.9-2.1-1.5-0.5-3.1c4.4-4.4,8.5-9.1,12.3-14c12.2-15.6,21.4-32.9,28.6-51.3c5.4-13.8,9.8-28,13.6-42.4
		c1.1-3.9,1.1-5.4,3.3-4c0.2,0.1,0.5,0.3,0.7,0.5c0,0,0.1,0,0.1,0.1c0.3,0.2,0.6,0.4,0.9,0.7l0,0c0.4,0.3,0.7,0.6,1.1,0.9
		C158,81,165.7,95,168.5,111.7C169.1,115.2,169.4,118.7,169.3,121.4L169.3,121.4z M56.1,163.6c-4-4.5-7-9.6-9.3-15
		c-6.1-14.5-7.5-29.3-3.3-44.5c2.4-8.6,6.9-16.1,12.6-23c9.5-11.5,21.4-19.1,36-22.2c7.2-1.5,14.6-1.9,22.2-0.1
		c-0.1,0.8,0,1.3-0.2,1.7c-6.1,19-12.5,37.9-21.5,55.9c-6.5,12.9-14.1,25.1-23.4,36.2c-3.3,3.9-6.8,7.6-10.5,11.2
		C57.7,164.8,57.1,164.8,56.1,163.6L56.1,163.6z"/>
</g>
</svg>
